<?xml version="1.0" encoding="UTF-8"?>
<svg width="800" height="800" version="1.1" viewBox="0 0 800 800" xmlns="http://www.w3.org/2000/svg">
 <g fill="#000">
  <path d="m400 50c-193.3 0-350 156.7-350 350s156.7 350 350 350 350-156.7 350-350-156.7-350-350-350zm0 650c-165.7 0-300-134.3-300-300s134.3-300 300-300 300 134.3 300 300-134.3 300-300 300z"/>
  <path d="m400 150c-138.1 0-250 111.9-250 250s111.9 250 250 250 250-111.9 250-250-111.9-250-250-250zm0 450c-110.5 0-200-89.5-200-200s89.5-200 200-200 200 89.5 200 200-89.5 200-200 200z"/>
 </g>
</svg>
